PathFileType	4	(X/Y/Z)	RBDS023\RBDS023runT25.trc
DataRate	CameraRate	NumFrames	NumMarkers	Units	OrigDataRate	OrigDataStartFrame	OrigNumFrames
150.000000	150.000000	5	33	mm	150.000000	3937	4500
Frame#	Time	L.ASIS			L.Heel.Bottom			L.Heel.Lateral			L.Heel.Top			L.Iliac.Crest			L.MT1			L.MT5			L.PSIS			L.Shank.Bottom.Lateral			L.Shank.Bottom.Medial			L.Shank.Top.Lateral			L.Shank.Top.Medial			L.Thigh.Bottom.Lateral			L.Thigh.Bottom.Medial			L.Thigh.Top.Lateral			L.Thigh.Top.Medial			R.ASIS			R.ASY			R.Heel.Bottom			R.Heel.Lateral			R.Heel.Top			R.Iliac.Crest			R.MT1			R.MT5			R.PSIS			R.Shank.Bottom.Lateral			R.Shank.Bottom.Medial			R.Shank.Top.Lateral			R.Shank.Top.Medial			R.Thigh.Bottom.Lateral			R.Thigh.Bottom.Medial			R.Thigh.Top.Lateral			R.Thigh.Top.Medial			
		X1	Y1	Z1	X2	Y2	Z2	X3	Y3	Z3	X4	Y4	Z4	X5	Y5	Z5	X6	Y6	Z6	X7	Y7	Z7	X8	Y8	Z8	X9	Y9	Z9	X10	Y10	Z10	X11	Y11	Z11	X12	Y12	Z12	X13	Y13	Z13	X14	Y14	Z14	X15	Y15	Z15	X16	Y16	Z16	X17	Y17	Z17	X18	Y18	Z18	X19	Y19	Z19	X20	Y20	Z20	X21	Y21	Z21	X22	Y22	Z22	X23	Y23	Z23	X24	Y24	Z24	X25	Y25	Z25	X26	Y26	Z26	X27	Y27	Z27	X28	Y28	Z28	X29	Y29	Z29	X30	Y30	Z30	X31	Y31	Z31	X32	Y32	Z32	X33	Y33	Z33	

3938	26.24666666666667	2384.539844808812	995.3928398798116	881.1521166891602	1988.532184812311	53.20771780543075	957.628454724965	2016.532654135469	69.54955681815194	916.5048915607505	2005.110638101346	97.81546645465193	958.4758177479654	2311.454955073395	1060.293490084973	834.0382977919184	2213.496062535756	36.78207153958374	989.7169355648158	2173.69530511237	35.8718833263057	876.2809170781297	2206.307889469928	1031.723667900424	944.0919252246964	2116.777618355059	164.5299734065945	892.8875255023736	2077.610534853275	186.4865278052067	917.1610325890199	2145.969297779184	235.922664759785	868.7846464636218	2107.949554662454	262.1035636717667	895.5315929859952	2303.316223078499	641.314242073169	816.2754748540963	2240.422971974724	638.7794767185521	849.5335528309307	2290.741533926969	750.6010860115072	807.6710581841021	2232.743191440505	748.9029937463056	843.5271678919532	2390.811223218333	991.001455186266	1096.482281933151	2192.890264294515	193.2022624086089	1047.736861421057	2040.693602503701	322.7424120830545	1039.374894759179	2074.301580807815	310.8966338723525	1081.957039471737	2085.315886066261	339.3695096477145	1035.500252422683	2318.683178915273	1073.297358557868	1141.768012828139	2165.165230231597	138.7204636465261	1005.267408840401	2153.025609704524	166.0781164390498	1116.086296961768	2211.878729352476	1030.72220073927	1051.191375490338	2204.905707210095	334.0844574343245	1094.143365392553	2178.843160996676	374.5268270286625	1066.440421287355	2265.572408032817	386.7322933262338	1109.248148134621	2239.803608897298	424.5070956960423	1080.86045320704	2448.15132029396	618.9589063886773	1135.338755168575	2398.319704786281	593.7108319501887	1087.822542545571	2384.807746571938	707.2510916314567	1150.681923666646	2337.504887773443	683.0513588123722	1106.163683985104	
3939	26.25333333333333	2386.399593133362	999.331810821751	881.7888411305101	1973.011125181283	59.18258266883084	957.3389360480484	2001.33828405079	74.34828751504699	916.0777757243874	1990.679913176272	103.332332475529	957.6898966212465	2315.848784616376	1064.696679368811	834.0293027813944	2196.593393374118	37.04578573842774	989.634270689144	2157.047629776838	36.17592318132598	876.5068548029325	2208.05449632347	1036.528339500368	943.6380910797075	2102.251288369001	169.2031390322261	892.6481393315313	2063.209085837465	191.0581182608736	917.2037151361653	2131.653659214342	240.6626522603	869.0974036560949	2093.578056236506	266.7447301108188	895.8804014979345	2295.37550992498	645.3726475638291	818.394701834254	2232.700574516816	645.0094718732605	852.1109253508538	2286.027914781203	754.8984196697339	808.9572462882135	2228.177565576087	755.2775573217214	845.0839666993795	2392.184198071339	996.2761859856578	1096.494401655559	2215.25959874411	186.0058900868989	1046.104408087926	2055.359147939443	306.1710288124644	1037.436096858847	2089.291392882566	295.9779017645191	1080.095361614008	2098.971891828448	325.5119486818195	1033.958050209718	2319.78251813112	1078.903240567301	1141.590073538873	2191.087956023411	130.2593911249591	1003.053939112456	2176.409304166492	155.9920407132568	1113.943087351086	2213.323334577602	1035.89747781755	1050.993763605658	2218.819051850746	326.8280090400839	1092.954313281734	2190.909013894299	365.9369457396893	1065.106746384823	2276.596725344113	382.4758746974781	1108.54368219798	2249.188116634652	418.9181232142199	1079.939122476575	2452.516238535759	625.9372608772961	1136.187612388924	2403.345601505398	600.381068580391	1088.166754463639	2388.037021071027	713.3880220750236	1151.591416826537	2341.314636510167	688.8110875118761	1106.68551365977	
3940	26.26	2388.465495160107	1003.554503750964	882.3857396944466	1958.046565061772	66.10035763164466	957.0827316087355	1986.72690015213	79.94870553077099	915.6790950068807	1976.975155494516	109.6647730964891	956.9562307170448	2320.41533221985	1069.371385984311	834.0546835286082	2179.850770972277	37.2515854755496	989.5352280618916	2140.585345421625	36.53960850640802	876.6853916457346	2210.000182077645	1041.603390650727	943.1591479146957	2088.329818364553	174.422296340309	892.3978855380784	2049.422220986449	196.130857016869	917.2806768255465	2117.846315181772	245.9931798580587	869.394106107215	2079.74366474764	271.9278185587509	896.2759351022659	2287.681594389723	649.9493148576476	820.6028610151654	2225.351620034662	651.7677782047228	854.8620296980737	2281.554230904028	759.610540067232	810.3159732648185	2223.94183000338	762.0712482213434	846.7293924056877	2393.755767963116	1001.729050327525	1096.472075463907	2238.060420158669	178.7930394033464	1044.510522312115	2070.922995464664	288.9901483025711	1035.212026631931	2105.04142248493	280.557847473547	1078.013693505877	2113.347226617472	311.0281525300442	1032.15379111052	2320.998077270368	1084.713421232196	1141.41232782078	2217.658816619346	121.9595592931245	1000.968657708	2200.443228997584	146.0222852825559	1111.82615143422	2214.958319667787	1041.286942784368	1050.775659332953	2233.022314760146	319.1683478901772	1091.654645516496	2203.286474640357	356.7947743578982	1063.628403962718	2287.648396285657	377.7412901732893	1107.767762533861	2258.622198416381	412.7259064116349	1078.904755966951	2456.277053638234	632.7633405113829	1136.976518037983	2407.731637205031	607.001364632384	1088.448834863181	2390.874952257103	719.5213045628132	1152.375449333833	2344.701063391557	694.6740591430572	1107.060818734859	
3941	26.26666666666667	2390.726727769022	1008.022606419958	882.9581749155835	1943.748220735369	73.93972634104628	956.8701129116805	1972.806615725435	86.34312574076267	915.3271773053049	1964.099111555356	116.7740995644728	956.3101924738538	2325.096166051279	1074.338350933941	834.1296655158808	2163.333948407663	37.37680708747741	989.415218984336	2124.367926443137	36.99597271528545	876.8018528319301	2212.12744793174	1046.899231421854	942.6723817145811	2075.094563055769	180.1323184278104	892.1457480663718	2036.34070859751	201.6506324244833	917.4103669742526	2104.619258564348	251.8625761363971	869.6720110260081	2066.534745184391	277.5991628972012	896.7365260518291	2280.297138595218	654.9983634896413	822.8189804025616	2218.416067423793	658.9805672178404	857.6684445276478	2277.375547619843	764.6952947422199	811.7166284112958	2220.078126712084	769.2125899105798	848.4166793921244	2395.500162113632	1007.314052117225	1096.441890756411	2261.273224144424	171.6314563086292	1042.973055368604	2087.471566048288	271.3147118694746	1032.728303741093	2121.629451734342	264.7481747607288	1075.736970966199	2128.517993631624	296.01042106126	1030.102169129558	2322.30526565047	1090.671703619424	1141.245568475334	2244.844810826045	113.9044346945152	999.0473344819104	2225.119279033523	136.2696571618673	1109.773275191943	2216.767585942388	1046.831475332219	1050.54384410413	2247.569631480982	311.1283615381213	1090.258651848095	2216.045856989254	347.132395975632	1062.02729674786	2298.792624180726	372.5158151107934	1106.932099672614	2268.179020989026	405.9286525850867	1077.782108324163	2459.4208851003	639.348112374374	1137.666935824291	2411.428884374804	613.4561807076033	1088.675258147369	2393.313673981927	725.5779842926263	1152.992002659127	2347.623428157364	700.54588261191	1107.289274814555	
3942	26.27333333333333	2393.169938543654	1012.687617361755	883.524213572148	1930.214649041713	82.6503651686948	956.7083754499579	1959.672733349855	93.49956465860743	915.0371315014635	1952.13504559981	124.5973734465986	955.7796496084187	2329.833566499748	1079.602891741608	834.2725994088803	2147.108811047663	37.42085949490009	989.2687230900277	2108.453263187975	37.59243115702137	876.846216935009	2214.418375401661	1052.360407713052	942.1943069688643	2062.605059290544	186.2636152872081	891.8993882623282	2024.030862735245	207.5488192402266	917.6068330488666	2092.027135207567	258.2029013787116	869.9307447077553	2054.01784110723	283.6897708124243	897.278359361783	2273.272199942503	660.459700409311	824.9648053001063	2211.921116192232	666.5625773143184	860.4198179274115	2273.535370925501	770.0977032217974	813.1247645642059	2216.617335976563	776.6197037189817	850.1022505183278	2397.389336078414	1012.97651829886	1096.428344835278	2284.883990556756	164.5984579689227	1041.506725560294	2105.07840609968	253.2656447984786	1030.027174743974	2139.124030741971	248.6619932076046	1073.30201891659	2144.549918567439	280.5592820755693	1027.835468450739	2323.688286979532	1096.720177892265	1141.099798743071	2272.609715141552	106.1864716082513	997.3098956435596	2250.424029859811	126.8311656306376	1107.814776892134	2218.733939886249	1052.471389770212	1050.304290957706	2262.510298055959	302.7413511322017	1088.789409652897	2229.249979182569	336.9943074641008	1060.335686824622	2310.093309346334	366.801977328625	1106.056106325406	2277.927979186211	398.5397114626228	1076.605807440423	2461.93039274457	645.6059777642751	1138.223705932053	2414.383036877005	619.6362188359724	1088.85545341583	2395.344670893174	731.4869771331968	1153.405661170351	2350.040067641415	706.3359195155158	1107.378193215921	
